<?xml version="1.0" standalone="no"?>
<!DOCTYPE svg PUBLIC "-//W3C//DTD SVG 20010904//EN"
 "http://www.w3.org/TR/2001/REC-SVG-20010904/DTD/svg10.dtd">
<svg version="1.0" xmlns="http://www.w3.org/2000/svg"
 width="700.000000pt" height="700.000000pt" viewBox="0 0 700.000000 700.000000"
 preserveAspectRatio="xMidYMid meet">
<metadata>
Created by potrace 1.14, written by Peter Selinger 2001-2017
</metadata>
<g transform="translate(0.000000,700.000000) scale(0.100000,-0.100000)"
fill="#000000" stroke="none">
<path d="M1400 6980 c-719 -129 -1259 -669 -1379 -1380 -21 -125 -21 -131 -18
-2000 l3 -1875 22 -100 c151 -661 619 -1143 1263 -1300 191 -46 208 -46 2109
-43 1976 4 1834 -1 2058 64 655 189 1126 756 1201 1446 15 134 15 3561 0 3696
-45 416 -213 761 -510 1048 -229 220 -493 359 -827 436 l-97 22 -1860 2
c-1780 3 -1865 2 -1965 -16z m-24 -761 c120 -22 247 -105 304 -198 l25 -40
395 -1 394 0 41 39 c22 22 65 52 95 68 50 25 65 28 155 28 121 -1 169 -19 249
-95 130 -123 151 -314 51 -467 -40 -61 -79 -92 -160 -130 -50 -22 -74 -27
-140 -27 -69 0 -90 4 -148 32 -42 19 -85 50 -116 82 l-48 50 -375 0 -376 0
-31 -49 c-39 -60 -110 -128 -174 -165 l-47 -28 0 -371 0 -370 63 -61 c71 -68
102 -124 118 -211 25 -137 -41 -288 -159 -363 -190 -122 -434 -50 -530 156
-23 49 -27 70 -27 147 0 76 4 99 26 146 15 31 43 74 63 96 l36 40 0 411 0 410
-50 37 c-79 58 -142 152 -170 254 -29 109 -6 262 54 365 33 57 122 139 185
170 98 50 192 64 297 45z m3640 -1129 c264 -67 481 -266 559 -512 39 -124 45
-186 45 -509 0 -240 -3 -316 -15 -355 -45 -151 -224 -225 -364 -149 -54 30
-83 61 -117 125 -17 32 -19 68 -24 375 -6 385 -5 382 -90 459 -85 77 16 71
-1245 71 l-1130 0 -46 -21 c-55 -26 -108 -77 -135 -130 -18 -38 -19 -72 -19
-1184 0 -1112 1 -1146 19 -1184 27 -53 80 -104 135 -130 43 -20 66 -21 381
-26 373 -6 376 -6 445 -77 124 -128 90 -328 -70 -408 l-60 -30 -258 -3 c-434
-6 -579 18 -746 125 -167 107 -283 261 -343 455 l-23 73 -3 1170 c-2 1038 -1
1179 13 1250 61 303 288 540 590 616 65 16 160 18 1246 18 1146 1 1178 0 1255
-19z m-361 -1603 c666 -222 1224 -411 1241 -420 70 -36 134 -146 134 -227 0
-50 -30 -126 -66 -168 -32 -37 -99 -74 -553 -301 l-516 -259 -252 -504 c-138
-277 -263 -518 -277 -535 -67 -80 -201 -106 -302 -59 -109 51 -78 -27 -534
1340 -431 1294 -426 1276 -398 1369 30 101 156 183 263 172 28 -2 595 -186
1260 -408z"/>
<path d="M3790 3222 c0 -7 412 -1247 426 -1282 3 -9 58 89 138 247 81 162 145
276 166 299 25 25 114 75 305 171 152 77 263 138 255 141 -302 104 -1290 428
-1290 424z"/>
</g>
</svg>
